<svg xmlns="http://www.w3.org/2000/svg" viewBox="0 0 160 160">
  <defs>
    <radialGradient id="base" cx="34%" cy="25%" r="92%">
      <stop offset="0" stop-color="#ffffff"/>
      <stop offset="0.16" stop-color="#fff9df"/>
      <stop offset="0.31" stop-color="#f4df95"/>
      <stop offset="0.48" stop-color="#d9ad45"/>
      <stop offset="0.66" stop-color="#a87928"/>
      <stop offset="0.84" stop-color="#684117"/>
      <stop offset="1" stop-color="#27170b"/>
    </radialGradient>
    <linearGradient id="sweep" x1="16" y1="16" x2="144" y2="144" gradientUnits="userSpaceOnUse">
      <stop offset="0" stop-color="#ffffff" stop-opacity=".62"/>
      <stop offset=".38" stop-color="#fff4bd" stop-opacity=".2"/>
      <stop offset=".7" stop-color="#8d5a1d" stop-opacity=".24"/>
      <stop offset="1" stop-color="#1f1209" stop-opacity=".42"/>
    </linearGradient>
    <radialGradient id="flare" cx="29%" cy="23%" r="44%">
      <stop offset="0" stop-color="#ffffff" stop-opacity=".92"/>
      <stop offset=".28" stop-color="#ffffff" stop-opacity=".52"/>
      <stop offset=".62" stop-color="#fff5c7" stop-opacity=".18"/>
      <stop offset="1" stop-color="#fff5c7" stop-opacity="0"/>
    </radialGradient>
    <clipPath id="clip"><circle cx="80" cy="80" r="70"/></clipPath>
  </defs>
  <circle cx="80" cy="80" r="70" fill="url(#base)"/>
  <g clip-path="url(#clip)">
    <path d="M-10 118 118 -10h44L34 170H-10z" fill="#fffdf4" opacity=".36"/>
    <path d="M18 170 170 18v46L64 170z" fill="#f7d978" opacity=".22"/>
    <path d="M-12 76 76 -12h30L-12 108z" fill="#ffffff" opacity=".24"/>
    <path d="M92 170 170 92v78z" fill="#4b2d11" opacity=".34"/>
    <circle cx="50" cy="40" r="50" fill="url(#flare)"/>
    <circle cx="43" cy="34" r="18" fill="#fff" opacity=".88"/>
    <circle cx="64" cy="54" r="7" fill="#fff" opacity=".66"/>
    <path d="M30 50c28-24 70-25 100-2" fill="none" stroke="#ffffff" stroke-opacity=".18" stroke-width="5" stroke-linecap="round"/>
    <circle cx="80" cy="80" r="48" fill="none" stroke="#fff" stroke-opacity=".32" stroke-width="2"/>
    <circle cx="80" cy="80" r="28" fill="url(#sweep)" opacity=".2"/>
  </g>
  <circle cx="80" cy="80" r="70" fill="none" stroke="#8a601f" stroke-opacity=".22" stroke-width="2"/>
</svg>
