<svg xmlns="http://www.w3.org/2000/svg" viewBox="0 0 160 160">
  <defs>
    <radialGradient id="base" cx="30%" cy="20%" r="94%">
      <stop offset="0" stop-color="#fffef2"/>
      <stop offset="0.18" stop-color="#fff2a8"/>
      <stop offset="0.39" stop-color="#eac65a"/>
      <stop offset="0.58" stop-color="#c99331"/>
      <stop offset="0.78" stop-color="#80511a"/>
      <stop offset="1" stop-color="#2b190b"/>
    </radialGradient>
    <radialGradient id="flare" cx="30%" cy="22%" r="44%">
      <stop offset="0" stop-color="#ffffff" stop-opacity=".94"/>
      <stop offset=".26" stop-color="#fff8cf" stop-opacity=".52"/>
      <stop offset=".62" stop-color="#ffe68b" stop-opacity=".16"/>
      <stop offset="1" stop-color="#ffe68b" stop-opacity="0"/>
    </radialGradient>
    <linearGradient id="glass" x1="12" y1="18" x2="148" y2="142" gradientUnits="userSpaceOnUse">
      <stop offset="0" stop-color="#fffbea" stop-opacity=".58"/>
      <stop offset=".48" stop-color="#f4cf63" stop-opacity=".16"/>
      <stop offset="1" stop-color="#5f3912" stop-opacity=".38"/>
    </linearGradient>
    <clipPath id="clip"><circle cx="80" cy="80" r="70"/></clipPath>
  </defs>
  <circle cx="80" cy="80" r="70" fill="url(#base)"/>
  <g clip-path="url(#clip)">
    <path d="M14 168 168 14v58L72 168z" fill="#fff7c8" opacity=".34"/>
    <path d="M-10 58 58 -10h54L-10 112z" fill="#e6b33d" opacity=".2"/>
    <path d="M98 -10 170 62v36L64 -10z" fill="#4a2b10" opacity=".36"/>
    <circle cx="52" cy="39" r="48" fill="url(#flare)"/>
    <circle cx="52" cy="39" r="17" fill="#fffdf2" opacity=".84"/>
    <circle cx="71" cy="55" r="6" fill="#fff8d0" opacity=".54"/>
    <path d="M22 50c36-26 84-26 118 4" fill="none" stroke="#fff4bd" stroke-opacity=".24" stroke-width="4" stroke-linecap="round"/>
    <circle cx="80" cy="80" r="62" fill="url(#glass)" opacity=".18"/>
  </g>
  <circle cx="80" cy="80" r="70" fill="none" stroke="#8a601f" stroke-opacity=".22" stroke-width="2"/>
</svg>
