<svg xmlns="http://www.w3.org/2000/svg" viewBox="0 0 160 160">
  <defs>
    <radialGradient id="base" cx="36%" cy="34%" r="93%">
      <stop offset="0" stop-color="#fffef3"/>
      <stop offset="0.13" stop-color="#fff0a4"/>
      <stop offset="0.29" stop-color="#f0cd5c"/>
      <stop offset="0.47" stop-color="#d59a31"/>
      <stop offset="0.65" stop-color="#a8671d"/>
      <stop offset="0.8" stop-color="#6d3510"/>
      <stop offset="1" stop-color="#291305"/>
    </radialGradient>
    <radialGradient id="leftGlow" cx="24%" cy="39%" r="72%">
      <stop offset="0" stop-color="#fff9d5" stop-opacity="0.62"/>
      <stop offset=".34" stop-color="#ffe98e" stop-opacity="0.28"/>
      <stop offset=".72" stop-color="#dba33b" stop-opacity=".08"/>
      <stop offset="1" stop-color="#dba33b" stop-opacity="0"/>
    </radialGradient>
    <radialGradient id="flare" cx="31%" cy="30%" r="42%">
      <stop offset="0" stop-color="#ffffff" stop-opacity=".95"/>
      <stop offset=".24" stop-color="#fffce7" stop-opacity=".56"/>
      <stop offset=".62" stop-color="#ffe88d" stop-opacity=".16"/>
      <stop offset="1" stop-color="#ffe88d" stop-opacity="0"/>
    </radialGradient>
    <linearGradient id="bottomShade" x1="80" y1="38" x2="80" y2="170" gradientUnits="userSpaceOnUse">
      <stop offset="0" stop-color="#4b260a" stop-opacity="0"/>
      <stop offset=".5" stop-color="#70400f" stop-opacity=".04"/>
      <stop offset=".74" stop-color="#74410f" stop-opacity=".24"/>
      <stop offset="1" stop-color="#281307" stop-opacity=".72"/>
    </linearGradient>
    <radialGradient id="bottomBrown" cx="50%" cy="104%" r="76%">
      <stop offset="0" stop-color="#281307" stop-opacity="0.88"/>
      <stop offset=".34" stop-color="#70400f" stop-opacity="0.52"/>
      <stop offset=".66" stop-color="#a66b1e" stop-opacity="0.14"/>
      <stop offset="1" stop-color="#a66b1e" stop-opacity="0"/>
    </radialGradient>
    <clipPath id="clip"><circle cx="80" cy="80" r="70"/></clipPath>
  </defs>
  <circle cx="80" cy="80" r="70" fill="url(#base)"/>
  <g clip-path="url(#clip)">
    <circle cx="80" cy="80" r="72" fill="url(#leftGlow)"/>
    <ellipse cx="80" cy="139" rx="82" ry="58" fill="url(#bottomBrown)"/>
    <circle cx="80" cy="80" r="72" fill="url(#bottomShade)" opacity="0.58"/>
    <path d="M96 172 172 96v76z" fill="#3a1605" opacity="0.28"/>
    <path d="M-4 146 146 -4h28L32 172H-4z" fill="#fff4ae" opacity="0.26"/>
    <path d="M18 172 172 18v56L70 172z" fill="#c58423" opacity="0.24"/>
    <path d="M-16 108 108 -16h56L8 172H-16z" fill="#fffbe2" opacity="0.11"/>
    <circle cx="55" cy="46" r="50" fill="url(#flare)"/>
    <circle cx="55" cy="46" r="18" fill="#fffdf0" opacity=".88"/>
    <circle cx="73" cy="63" r="6" fill="#ffffff" opacity=".58"/>
    <path d="M28 62c36-26 82-25 114 8" fill="none" stroke="#fff0ad" stroke-opacity="0.22" stroke-width="4" stroke-linecap="round"/>
  </g>
  <circle cx="80" cy="80" r="70" fill="none" stroke="#7b5318" stroke-opacity=".18" stroke-width="2"/>
</svg>
