<svg xmlns="http://www.w3.org/2000/svg" viewBox="0 0 160 160">
  <defs>
    <radialGradient id="base" cx="32%" cy="31%" r="91%">
      <stop offset="0" stop-color="#fffef3"/>
      <stop offset="0.12" stop-color="#fff0a2"/>
      <stop offset="0.28" stop-color="#f0c64f"/>
      <stop offset="0.44" stop-color="#cc8924"/>
      <stop offset="0.58" stop-color="#914910"/>
      <stop offset="0.75" stop-color="#4f1f06"/>
      <stop offset="1" stop-color="#1a0902"/>
    </radialGradient>
    <radialGradient id="leftGlow" cx="24%" cy="39%" r="72%">
      <stop offset="0" stop-color="#fff9d5" stop-opacity="0.52"/>
      <stop offset=".34" stop-color="#ffe98e" stop-opacity="0.18"/>
      <stop offset=".72" stop-color="#dba33b" stop-opacity=".08"/>
      <stop offset="1" stop-color="#dba33b" stop-opacity="0"/>
    </radialGradient>
    <radialGradient id="flare" cx="31%" cy="30%" r="42%">
      <stop offset="0" stop-color="#ffffff" stop-opacity=".95"/>
      <stop offset=".24" stop-color="#fffce7" stop-opacity=".56"/>
      <stop offset=".62" stop-color="#ffe88d" stop-opacity=".16"/>
      <stop offset="1" stop-color="#ffe88d" stop-opacity="0"/>
    </radialGradient>
    <linearGradient id="bottomShade" x1="80" y1="38" x2="80" y2="170" gradientUnits="userSpaceOnUse">
      <stop offset="0" stop-color="#4b260a" stop-opacity="0"/>
      <stop offset=".5" stop-color="#70400f" stop-opacity=".04"/>
      <stop offset=".74" stop-color="#74410f" stop-opacity=".24"/>
      <stop offset="1" stop-color="#281307" stop-opacity=".72"/>
    </linearGradient>
    <radialGradient id="bottomBrown" cx="50%" cy="104%" r="76%">
      <stop offset="0" stop-color="#281307" stop-opacity="1"/>
      <stop offset=".34" stop-color="#70400f" stop-opacity="0.68"/>
      <stop offset=".66" stop-color="#a66b1e" stop-opacity="0.22"/>
      <stop offset="1" stop-color="#a66b1e" stop-opacity="0"/>
    </radialGradient>
    <clipPath id="clip"><circle cx="80" cy="80" r="70"/></clipPath>
  </defs>
  <circle cx="80" cy="80" r="70" fill="url(#base)"/>
  <g clip-path="url(#clip)">
    <circle cx="80" cy="80" r="72" fill="url(#leftGlow)"/>
    <ellipse cx="80" cy="139" rx="82" ry="58" fill="url(#bottomBrown)"/>
    <circle cx="80" cy="80" r="72" fill="url(#bottomShade)" opacity="0.78"/>
    <path d="M86 172 172 86v86z" fill="#2a0e03" opacity="0.34"/>
    <path d="M14 172 172 14v36L60 172z" fill="#fff1a1" opacity="0.25"/>
    <path d="M36 172 172 36v50L78 172z" fill="#aa5410" opacity="0.28"/>
    <path d="M-16 108 108 -16h56L8 172H-16z" fill="#fffbe2" opacity="0.07"/>
    <circle cx="50" cy="42" r="50" fill="url(#flare)"/>
    <circle cx="50" cy="42" r="20" fill="#fffdf0" opacity=".88"/>
    <circle cx="68" cy="58" r="6.5" fill="#ffffff" opacity=".58"/>
    <path d="M22 54c42-26 88-22 120 12" fill="none" stroke="#fff0ad" stroke-opacity="0.19" stroke-width="4" stroke-linecap="round"/>
  </g>
  <circle cx="80" cy="80" r="70" fill="none" stroke="#7b5318" stroke-opacity=".18" stroke-width="2"/>
</svg>
