<svg xmlns="http://www.w3.org/2000/svg" viewBox="0 0 160 160">
  <defs>
    <radialGradient id="base" cx="30%" cy="34%" r="96%">
      <stop offset="0" stop-color="#fffff7"/>
      <stop offset="0.16" stop-color="#fff2a7"/>
      <stop offset="0.34" stop-color="#efca55"/>
      <stop offset="0.5" stop-color="#d2952b"/>
      <stop offset="0.66" stop-color="#a15d17"/>
      <stop offset="0.82" stop-color="#632d0a"/>
      <stop offset="1" stop-color="#241004"/>
    </radialGradient>
    <radialGradient id="leftGlow" cx="24%" cy="39%" r="72%">
      <stop offset="0" stop-color="#fff9d5" stop-opacity="0.78"/>
      <stop offset=".34" stop-color="#ffe98e" stop-opacity="0.44"/>
      <stop offset=".72" stop-color="#dba33b" stop-opacity=".08"/>
      <stop offset="1" stop-color="#dba33b" stop-opacity="0"/>
    </radialGradient>
    <radialGradient id="flare" cx="31%" cy="30%" r="42%">
      <stop offset="0" stop-color="#ffffff" stop-opacity=".95"/>
      <stop offset=".24" stop-color="#fffce7" stop-opacity=".56"/>
      <stop offset=".62" stop-color="#ffe88d" stop-opacity=".16"/>
      <stop offset="1" stop-color="#ffe88d" stop-opacity="0"/>
    </radialGradient>
    <linearGradient id="bottomShade" x1="80" y1="38" x2="80" y2="170" gradientUnits="userSpaceOnUse">
      <stop offset="0" stop-color="#4b260a" stop-opacity="0"/>
      <stop offset=".5" stop-color="#70400f" stop-opacity=".04"/>
      <stop offset=".74" stop-color="#74410f" stop-opacity=".24"/>
      <stop offset="1" stop-color="#281307" stop-opacity=".72"/>
    </linearGradient>
    <radialGradient id="bottomBrown" cx="50%" cy="104%" r="76%">
      <stop offset="0" stop-color="#281307" stop-opacity="0.82"/>
      <stop offset=".34" stop-color="#70400f" stop-opacity="0.44"/>
      <stop offset=".66" stop-color="#a66b1e" stop-opacity="0.12"/>
      <stop offset="1" stop-color="#a66b1e" stop-opacity="0"/>
    </radialGradient>
    <clipPath id="clip"><circle cx="80" cy="80" r="70"/></clipPath>
  </defs>
  <circle cx="80" cy="80" r="70" fill="url(#base)"/>
  <g clip-path="url(#clip)">
    <circle cx="80" cy="80" r="72" fill="url(#leftGlow)"/>
    <ellipse cx="80" cy="139" rx="82" ry="58" fill="url(#bottomBrown)"/>
    <circle cx="80" cy="80" r="72" fill="url(#bottomShade)" opacity="0.5"/>
    <path d="M102 172 172 102v70z" fill="#3a1706" opacity="0.22"/>
    <path d="M-12 144 144 -12h40L24 172H-12z" fill="#fff7bd" opacity="0.28"/>
    <path d="M38 172 172 38v42L88 172z" fill="#bc731a" opacity="0.2"/>
    <path d="M-16 108 108 -16h56L8 172H-16z" fill="#fffbe2" opacity="0.16"/>
    <circle cx="53" cy="46" r="50" fill="url(#flare)"/>
    <circle cx="53" cy="46" r="18" fill="#fffdf0" opacity=".88"/>
    <circle cx="72" cy="63" r="6" fill="#ffffff" opacity=".58"/>
  </g>
  <circle cx="80" cy="80" r="70" fill="none" stroke="#7b5318" stroke-opacity=".18" stroke-width="2"/>
</svg>
