<svg xmlns="http://www.w3.org/2000/svg" viewBox="0 0 128 128" role="img" aria-labelledby="title">
  <title>White Bloom Media mark</title>
  <defs>
    <radialGradient id="base" cx="24%" cy="18%" r="92%">
      <stop offset="0" stop-color="#ffffff"/>
      <stop offset="0.18" stop-color="#fff9db"/>
      <stop offset="0.42" stop-color="#edcf72"/>
      <stop offset="0.68" stop-color="#a77829"/>
      <stop offset="1" stop-color="#3f2913"/>
    </radialGradient>
    <linearGradient id="silver" x1="18" x2="106" y1="17" y2="110">
      <stop offset="0" stop-color="#ffffff" stop-opacity="0.96"/>
      <stop offset="0.42" stop-color="#eef0ef" stop-opacity="0.84"/>
      <stop offset="1" stop-color="#ffffff" stop-opacity="0.14"/>
    </linearGradient>
    <linearGradient id="goldBand" x1="102" x2="28" y1="16" y2="116">
      <stop offset="0" stop-color="#fff4b8"/>
      <stop offset="0.48" stop-color="#d9a842"/>
      <stop offset="1" stop-color="#533819"/>
    </linearGradient>
    <clipPath id="disc">
      <circle cx="64" cy="64" r="58"/>
    </clipPath>
  </defs>
  <circle cx="64" cy="64" r="58" fill="url(#base)"/>
  <g clip-path="url(#disc)">
    <path d="M-8 106 94 4h36L24 128H-8z" fill="url(#silver)" opacity="0.72"/>
    <path d="M52 128 128 52v38l-38 38z" fill="url(#goldBand)" opacity="0.72"/>
    <path d="M-10 40 36 -6h66L-10 106z" fill="#ffffff" opacity="0.32"/>
    <path d="M58 -4 132 70v58L24 20z" fill="#fff8d8" opacity="0.16"/>
  </g>
  <circle cx="64" cy="64" r="42" fill="none" stroke="#fffdf4" stroke-opacity="0.42" stroke-width="2"/>
  <circle cx="64" cy="64" r="23" fill="#fffdf4" fill-opacity="0.15" stroke="#fffdf4" stroke-opacity="0.46" stroke-width="1.8"/>
  <circle cx="38" cy="31" r="17" fill="#ffffff" opacity="0.9"/>
  <circle cx="57" cy="50" r="7" fill="#ffffff" opacity="0.72"/>
  <circle cx="64" cy="64" r="58" fill="none" stroke="#806022" stroke-opacity="0.22" stroke-width="2"/>
</svg>
